<mxfile host="app.diagrams.net" agent="Mozilla/5.0 (X11; Linux x86_64) AppleWebKit/537.36 (KHTML, like Gecko) Chrome/131.0.0.0 Safari/537.36" version="24.9.3" pages="2">
  <diagram name="Page-1" id="0JT_z1Z1anmlFC9r3GxD">
    <mxGraphModel dx="1114" dy="838" grid="0" gridSize="10" guides="1" tooltips="1" connect="1" arrows="1" fold="1" page="0" pageScale="1" pageWidth="827" pageHeight="1169" math="0" shadow="0">
      <root>
        <mxCell id="0" />
        <mxCell id="1" parent="0" />
        <mxCell id="oSuuzmFpZsacF9STBbim-7" value="Observeur" style="swimlane;whiteSpace=wrap;html=1;" vertex="1" parent="1">
          <mxGeometry x="111" y="131" width="200" height="106" as="geometry" />
        </mxCell>
        <mxCell id="oSuuzmFpZsacF9STBbim-1" value="PlateauJeu" style="rounded=0;whiteSpace=wrap;html=1;" vertex="1" parent="oSuuzmFpZsacF9STBbim-7">
          <mxGeometry x="40" y="34" width="120" height="60" as="geometry" />
        </mxCell>
        <mxCell id="oSuuzmFpZsacF9STBbim-15" value="Entites" style="swimlane;whiteSpace=wrap;html=1;" vertex="1" parent="1">
          <mxGeometry x="-20" y="377" width="462" height="305" as="geometry">
            <mxRectangle x="-22" y="249" width="96" height="26" as="alternateBounds" />
          </mxGeometry>
        </mxCell>
        <mxCell id="oSuuzmFpZsacF9STBbim-4" value="Objets" style="swimlane;whiteSpace=wrap;html=1;startSize=30;" vertex="1" parent="oSuuzmFpZsacF9STBbim-15">
          <mxGeometry x="249" y="34" width="201" height="258" as="geometry" />
        </mxCell>
        <mxCell id="oSuuzmFpZsacF9STBbim-12" value="Mine" style="rounded=0;whiteSpace=wrap;html=1;" vertex="1" parent="oSuuzmFpZsacF9STBbim-4">
          <mxGeometry x="40" y="40" width="120" height="60" as="geometry" />
        </mxCell>
        <mxCell id="oSuuzmFpZsacF9STBbim-13" value="Bombe" style="rounded=0;whiteSpace=wrap;html=1;" vertex="1" parent="oSuuzmFpZsacF9STBbim-4">
          <mxGeometry x="40" y="113" width="120" height="60" as="geometry" />
        </mxCell>
        <mxCell id="oSuuzmFpZsacF9STBbim-14" value="PastilleEnergetique" style="rounded=0;whiteSpace=wrap;html=1;" vertex="1" parent="oSuuzmFpZsacF9STBbim-4">
          <mxGeometry x="40" y="186" width="120" height="60" as="geometry" />
        </mxCell>
        <mxCell id="oSuuzmFpZsacF9STBbim-3" value="Obstacles" style="swimlane;whiteSpace=wrap;html=1;startSize=30;" vertex="1" parent="oSuuzmFpZsacF9STBbim-15">
          <mxGeometry x="14" y="34" width="197" height="258" as="geometry" />
        </mxCell>
        <mxCell id="oSuuzmFpZsacF9STBbim-6" value="Combattant" style="rounded=0;whiteSpace=wrap;html=1;" vertex="1" parent="oSuuzmFpZsacF9STBbim-3">
          <mxGeometry x="40" y="40" width="120" height="60" as="geometry" />
        </mxCell>
        <mxCell id="oSuuzmFpZsacF9STBbim-8" value="Eau" style="rounded=0;whiteSpace=wrap;html=1;" vertex="1" parent="oSuuzmFpZsacF9STBbim-3">
          <mxGeometry x="40" y="113" width="120" height="60" as="geometry" />
        </mxCell>
        <mxCell id="oSuuzmFpZsacF9STBbim-9" value="Mur" style="rounded=0;whiteSpace=wrap;html=1;" vertex="1" parent="oSuuzmFpZsacF9STBbim-3">
          <mxGeometry x="40" y="186" width="120" height="60" as="geometry" />
        </mxCell>
        <mxCell id="oSuuzmFpZsacF9STBbim-17" value="" style="shape=flexArrow;endArrow=classic;startArrow=classic;html=1;rounded=0;fontSize=12;startSize=8;endSize=8;curved=1;entryX=0.5;entryY=1;entryDx=0;entryDy=0;" edge="1" parent="1" source="oSuuzmFpZsacF9STBbim-19" target="oSuuzmFpZsacF9STBbim-7">
          <mxGeometry width="100" height="100" relative="1" as="geometry">
            <mxPoint x="120" y="488" as="sourcePoint" />
            <mxPoint x="220" y="388" as="targetPoint" />
          </mxGeometry>
        </mxCell>
        <mxCell id="oSuuzmFpZsacF9STBbim-22" value="COMMUNICATION" style="edgeLabel;html=1;align=center;verticalAlign=middle;resizable=0;points=[];fontSize=12;" vertex="1" connectable="0" parent="oSuuzmFpZsacF9STBbim-17">
          <mxGeometry x="0.0576" y="2" relative="1" as="geometry">
            <mxPoint x="2" y="2" as="offset" />
          </mxGeometry>
        </mxCell>
        <mxCell id="oSuuzmFpZsacF9STBbim-19" value="Observable" style="swimlane;whiteSpace=wrap;html=1;" vertex="1" parent="1">
          <mxGeometry x="-33" y="341" width="487" height="357" as="geometry">
            <mxRectangle x="-22" y="249" width="96" height="26" as="alternateBounds" />
          </mxGeometry>
        </mxCell>
      </root>
    </mxGraphModel>
  </diagram>
  <diagram id="JNlQePwvGSc4apWFBJW5" name="Page-2">
    <mxGraphModel dx="1114" dy="1238" grid="0" gridSize="10" guides="1" tooltips="1" connect="1" arrows="1" fold="1" page="0" pageScale="1" pageWidth="827" pageHeight="1169" math="0" shadow="0">
      <root>
        <mxCell id="0" />
        <mxCell id="1" parent="0" />
        <mxCell id="QnYKWomrZYeOKkek3u_2-1" value="GeneralControlleur" style="rounded=0;whiteSpace=wrap;html=1;" vertex="1" parent="1">
          <mxGeometry x="139" y="263" width="120" height="60" as="geometry" />
        </mxCell>
        <mxCell id="QnYKWomrZYeOKkek3u_2-5" value="" style="shape=flexArrow;endArrow=classic;html=1;rounded=0;fontSize=12;startSize=8;endSize=8;curved=1;exitX=0.5;exitY=1;exitDx=0;exitDy=0;entryX=0.5;entryY=0;entryDx=0;entryDy=0;" edge="1" parent="1" source="QnYKWomrZYeOKkek3u_2-19" target="QnYKWomrZYeOKkek3u_2-1">
          <mxGeometry width="50" height="50" relative="1" as="geometry">
            <mxPoint x="175" y="225" as="sourcePoint" />
            <mxPoint x="225" y="175" as="targetPoint" />
          </mxGeometry>
        </mxCell>
        <mxCell id="QnYKWomrZYeOKkek3u_2-7" value="actions" style="edgeLabel;html=1;align=center;verticalAlign=middle;resizable=0;points=[];fontSize=12;" vertex="1" connectable="0" parent="QnYKWomrZYeOKkek3u_2-5">
          <mxGeometry x="-0.0767" y="4" relative="1" as="geometry">
            <mxPoint x="-7" as="offset" />
          </mxGeometry>
        </mxCell>
        <mxCell id="QnYKWomrZYeOKkek3u_2-13" value="" style="shape=flexArrow;endArrow=classic;html=1;rounded=0;fontSize=12;startSize=8;endSize=8;curved=1;entryX=0.5;entryY=0;entryDx=0;entryDy=0;" edge="1" parent="1" target="QnYKWomrZYeOKkek3u_2-14">
          <mxGeometry width="50" height="50" relative="1" as="geometry">
            <mxPoint x="197" y="321" as="sourcePoint" />
            <mxPoint x="197" y="380" as="targetPoint" />
          </mxGeometry>
        </mxCell>
        <mxCell id="QnYKWomrZYeOKkek3u_2-15" value="appliquer actions" style="edgeLabel;html=1;align=center;verticalAlign=middle;resizable=0;points=[];fontSize=12;" vertex="1" connectable="0" parent="QnYKWomrZYeOKkek3u_2-13">
          <mxGeometry x="0.0169" y="10" relative="1" as="geometry">
            <mxPoint x="-11" y="-10" as="offset" />
          </mxGeometry>
        </mxCell>
        <mxCell id="QnYKWomrZYeOKkek3u_2-16" value="" style="edgeStyle=none;curved=1;rounded=0;orthogonalLoop=1;jettySize=auto;html=1;fontSize=12;startSize=8;endSize=8;exitX=0.5;exitY=0;exitDx=0;exitDy=0;entryX=0.5;entryY=0;entryDx=0;entryDy=0;" edge="1" parent="1" source="QnYKWomrZYeOKkek3u_2-14" target="QnYKWomrZYeOKkek3u_2-14">
          <mxGeometry relative="1" as="geometry" />
        </mxCell>
        <mxCell id="QnYKWomrZYeOKkek3u_2-14" value="PlateauJeu" style="rounded=0;whiteSpace=wrap;html=1;" vertex="1" parent="1">
          <mxGeometry x="139" y="395" width="120" height="60" as="geometry" />
        </mxCell>
        <mxCell id="QnYKWomrZYeOKkek3u_2-18" style="edgeStyle=none;curved=1;rounded=0;orthogonalLoop=1;jettySize=auto;html=1;exitX=0.5;exitY=0;exitDx=0;exitDy=0;fontSize=12;startSize=8;endSize=8;" edge="1" parent="1" source="QnYKWomrZYeOKkek3u_2-14" target="QnYKWomrZYeOKkek3u_2-14">
          <mxGeometry relative="1" as="geometry" />
        </mxCell>
        <mxCell id="QnYKWomrZYeOKkek3u_2-19" value="Combattant Courant" style="swimlane;whiteSpace=wrap;html=1;" vertex="1" parent="1">
          <mxGeometry x="-24" y="40" width="446" height="159" as="geometry" />
        </mxCell>
        <mxCell id="QnYKWomrZYeOKkek3u_2-2" value="IA" style="swimlane;whiteSpace=wrap;html=1;" vertex="1" parent="QnYKWomrZYeOKkek3u_2-19">
          <mxGeometry x="235" y="33" width="200" height="112" as="geometry" />
        </mxCell>
        <mxCell id="QnYKWomrZYeOKkek3u_2-10" value="StrategieInterface:&lt;div&gt;StrategieOffensive&lt;/div&gt;&lt;div&gt;StrategieDefensive&lt;/div&gt;" style="rounded=0;whiteSpace=wrap;html=1;" vertex="1" parent="QnYKWomrZYeOKkek3u_2-2">
          <mxGeometry x="33" y="38" width="134" height="60" as="geometry" />
        </mxCell>
        <mxCell id="QnYKWomrZYeOKkek3u_2-3" value="Joueur" style="swimlane;whiteSpace=wrap;html=1;" vertex="1" parent="QnYKWomrZYeOKkek3u_2-19">
          <mxGeometry x="11" y="33" width="200" height="113" as="geometry" />
        </mxCell>
        <mxCell id="QnYKWomrZYeOKkek3u_2-12" value="Input:&lt;br&gt;&lt;div&gt;TerminalControlleur&lt;/div&gt;&lt;div&gt;GraphiqueVuePrincipal&lt;/div&gt;" style="rounded=0;whiteSpace=wrap;html=1;" vertex="1" parent="QnYKWomrZYeOKkek3u_2-3">
          <mxGeometry x="33" y="38" width="133" height="60" as="geometry" />
        </mxCell>
        <mxCell id="QnYKWomrZYeOKkek3u_2-23" value="" style="curved=1;endArrow=classic;html=1;rounded=0;fontSize=12;startSize=8;endSize=8;exitX=0.5;exitY=1;exitDx=0;exitDy=0;entryX=0.5;entryY=0;entryDx=0;entryDy=0;" edge="1" parent="1" source="QnYKWomrZYeOKkek3u_2-14" target="QnYKWomrZYeOKkek3u_2-19">
          <mxGeometry width="50" height="50" relative="1" as="geometry">
            <mxPoint x="202" y="511" as="sourcePoint" />
            <mxPoint x="200" y="-15" as="targetPoint" />
            <Array as="points">
              <mxPoint x="268" y="510" />
              <mxPoint x="489" y="333" />
              <mxPoint x="556" y="58" />
              <mxPoint x="204" y="-127" />
            </Array>
          </mxGeometry>
        </mxCell>
      </root>
    </mxGraphModel>
  </diagram>
</mxfile>
